<svg xmlns="http://www.w3.org/2000/svg" width="400" viewBox="0 0 300 60" height="80" version="1.0"><path d="m17.434 20.11 1.437 2.296L6.31 30.11l12.562 7.782-1.594 2.187-13.53-8.453v-3.063ZM28.523 14.688v10.39a7.053 7.053 0 0 1 2.72-2.203c1.07-.5 2.16-.75 3.265-.75 1.82 0 3.156.492 4 1.469.844.968 1.265 2.32 1.265 4.047V41.25h-3V27.719c0-1.133-.261-1.957-.78-2.469-.524-.52-1.34-.781-2.454-.781-.71 0-1.387.164-2.031.484a7.42 7.42 0 0 0-1.719 1.203 7.952 7.952 0 0 0-1.266 1.453V41.25H25.54V15.016ZM60.285 37.156c0 .75.125 1.297.375 1.64.25.345.633.602 1.156.767l-.718 2.093c-.813-.105-1.524-.36-2.125-.765-.606-.414-1.043-1.036-1.313-1.86A6.514 6.514 0 0 1 55.13 41c-1.012.438-2.125.656-3.344.656-1.875 0-3.355-.523-4.437-1.578-1.075-1.05-1.61-2.453-1.61-4.203 0-1.926.75-3.406 2.25-4.438 1.508-1.039 3.688-1.562 6.532-1.562h2.765v-1.563c0-1.343-.398-2.296-1.187-2.859-.793-.57-1.887-.86-3.282-.86-.617 0-1.34.079-2.171.235-.825.149-1.727.39-2.704.735l-.78-2.266a18.7 18.7 0 0 1 3.234-.906 16.856 16.856 0 0 1 2.89-.266c2.332 0 4.082.543 5.25 1.625 1.164 1.086 1.75 2.559 1.75 4.422Zm-7.734 2.219c.926 0 1.805-.227 2.64-.688a5.955 5.955 0 0 0 2.094-1.953v-4.828h-2.703c-2.062 0-3.523.36-4.375 1.078-.844.711-1.266 1.664-1.266 2.86 0 1.156.297 2.039.891 2.64.602.594 1.508.891 2.719.891ZM68.39 41.25v-2.297h2.923v-14.14H68.39v-2.297h5.203l.547 4.437c.718-1.539 1.593-2.734 2.625-3.578 1.039-.844 2.406-1.266 4.093-1.266.52 0 .985.043 1.391.125.414.075.836.168 1.266.282l-.875 2.672c-.387-.102-.742-.18-1.063-.235a5.91 5.91 0 0 0-1.11-.094c-1.429 0-2.663.512-3.702 1.532-1.032 1.023-1.856 2.562-2.47 4.625v7.937h3.813v2.297Zm12.25-12.406V24.78l.298-2.265h2.578l-.422 6.328ZM95.918 39.188c1.438 0 2.57-.27 3.406-.813.844-.54 1.266-1.258 1.266-2.156 0-.57-.106-1.067-.313-1.485-.21-.414-.636-.785-1.28-1.109-.638-.332-1.622-.664-2.954-1-1.293-.32-2.418-.691-3.375-1.11-.95-.425-1.687-.976-2.219-1.656-.523-.675-.78-1.55-.78-2.625 0-1.05.296-1.957.89-2.718.601-.77 1.437-1.36 2.5-1.766 1.07-.414 2.312-.625 3.718-.625 1.508 0 2.82.2 3.938.594 1.125.398 2.078.886 2.86 1.468l-1.313 2.032a10.817 10.817 0 0 0-2.36-1.203c-.855-.313-1.886-.47-3.093-.47-1.47 0-2.512.231-3.125.688-.618.461-.922 1.047-.922 1.766 0 .543.148.996.453 1.36.3.367.812.695 1.531.984.727.293 1.727.61 3 .953 1.219.312 2.281.7 3.188 1.156.906.45 1.613 1.043 2.125 1.781.507.73.765 1.68.765 2.844 0 1.324-.383 2.399-1.14 3.219-.762.824-1.746 1.422-2.953 1.797-1.2.375-2.47.562-3.813.562-1.687 0-3.133-.246-4.328-.734-1.188-.488-2.188-1.082-3-1.781l1.719-1.985a9.062 9.062 0 0 0 2.53 1.469 8.366 8.366 0 0 0 3.08.563ZM113.883 14.688v10.39a7.053 7.053 0 0 1 2.719-2.203c1.07-.5 2.16-.75 3.265-.75 1.82 0 3.157.492 4 1.469.844.968 1.266 2.32 1.266 4.047V41.25h-3V27.719c0-1.133-.262-1.957-.781-2.469-.524-.52-1.34-.781-2.453-.781-.711 0-1.387.164-2.032.484a7.42 7.42 0 0 0-1.718 1.203 7.952 7.952 0 0 0-1.266 1.453V41.25h-2.984V15.016ZM141.723 22.516V38.89h5.281v2.359h-14.062v-2.36h5.78v-14h-5.593v-2.374Zm-2.39-8.766c.663 0 1.194.203 1.593.61.394.398.594.886.594 1.468 0 .606-.2 1.117-.594 1.531-.399.407-.93.61-1.594.61-.625 0-1.14-.203-1.547-.61-.406-.414-.61-.925-.61-1.53 0-.583.204-1.071.61-1.47.407-.406.922-.609 1.547-.609ZM168.453 40.313c-.648.43-1.43.757-2.343.984-.907.238-1.797.36-2.672.36-2.024 0-3.578-.524-4.672-1.579-1.086-1.05-1.625-2.41-1.625-4.078V24.828h-4.313v-2.312h4.313v-4.25l2.984-.36v4.61h6.469l-.36 2.312h-6.109v11.14c0 1.044.274 1.84.828 2.391.551.543 1.469.813 2.75.813a7.11 7.11 0 0 0 1.938-.25 8.731 8.731 0 0 0 1.656-.64ZM183.387 39.078c.937 0 1.812-.148 2.625-.453a10.466 10.466 0 0 0 2.25-1.188l1.453 1.97c-.812.698-1.797 1.25-2.953 1.656-1.149.394-2.274.593-3.375.593-1.867 0-3.453-.402-4.766-1.203-1.312-.8-2.312-1.926-3-3.375-.687-1.445-1.031-3.148-1.031-5.11 0-1.874.348-3.554 1.047-5.046.695-1.488 1.695-2.66 3-3.516 1.312-.851 2.906-1.281 4.781-1.281 1.195 0 2.32.184 3.375.547a9.41 9.41 0 0 1 2.89 1.625l-1.468 2c-.793-.563-1.59-.985-2.39-1.266a7.342 7.342 0 0 0-2.438-.422c-1.617 0-2.945.61-3.984 1.828-1.043 1.211-1.563 3.055-1.563 5.532 0 1.656.238 3.011.719 4.062.476 1.055 1.133 1.824 1.969 2.313.832.492 1.785.734 2.859.734ZM203.555 14.969v21.656c0 .93.285 1.586.86 1.969.57.386 1.316.578 2.234.578.562 0 1.097-.055 1.609-.172.508-.125 1.02-.285 1.531-.484l.797 2.187c-.5.25-1.133.469-1.89.656-.75.196-1.602.297-2.547.297-1.668 0-3.016-.457-4.047-1.375-1.031-.914-1.547-2.187-1.547-3.812V17.344h-5.734v-2.375ZM220.582 22.516V35.78c0 1.242.254 2.137.766 2.688.508.543 1.305.812 2.39.812 1.032 0 2.004-.289 2.922-.875.914-.593 1.63-1.297 2.141-2.11v-13.78h2.984V41.25h-2.53l-.25-2.531a7.443 7.443 0 0 1-2.735 2.187c-1.074.5-2.164.75-3.266.75-1.812 0-3.168-.476-4.062-1.437-.899-.969-1.344-2.328-1.344-4.078V22.516ZM241.922 24.953c.688-.894 1.477-1.586 2.375-2.078.895-.5 1.883-.75 2.969-.75 1.664 0 3.015.406 4.047 1.219 1.031.804 1.781 1.937 2.25 3.406.476 1.46.718 3.168.718 5.125 0 1.887-.289 3.57-.859 5.047-.562 1.48-1.398 2.64-2.5 3.484-1.094.836-2.445 1.25-4.047 1.25-2.18 0-3.883-.781-5.11-2.343l-.218 1.937h-2.61V14.969l2.985-.36Zm4.234 14.281c1.563 0 2.766-.601 3.61-1.812.844-1.207 1.265-3.063 1.265-5.563 0-1.632-.167-2.992-.5-4.078-.335-1.093-.828-1.906-1.484-2.437-.656-.54-1.465-.813-2.422-.813-1.054 0-1.976.313-2.765.938a9.082 9.082 0 0 0-1.938 2.062v9.297a5.634 5.634 0 0 0 1.844 1.75 4.608 4.608 0 0 0 2.39.656ZM260.98 44.922l-2.406-1.078 15.22-31.39 2.39 1.171ZM282.617 20.11l13.672 8.453v3.062l-13.5 8.453-1.625-2.203 12.563-7.766-12.563-7.734Zm0 0"/></svg>