<svg xmlns="http://www.w3.org/2000/svg" width="300" viewBox="0 0 224.88 45" height="60" version="1.0"><path fill="#fff" d="m11.871 15.336 1.086 1.75-9.508 5.871 9.508 5.93-1.203 1.668-10.246-6.442v-2.336ZM20.266 11.207v7.918a5.335 5.335 0 0 1 2.058-1.68 5.718 5.718 0 0 1 2.473-.57c1.375 0 2.387.375 3.027 1.117.637.738.957 1.77.957 3.086V31.45h-2.27V21.137c0-.864-.198-1.492-.593-1.883-.395-.395-1.012-.594-1.855-.594-.54 0-1.051.125-1.54.367a5.79 5.79 0 0 0-1.3.918 5.91 5.91 0 0 0-.957 1.11v10.394h-2.258V11.457ZM44.309 28.328c0 .57.093.988.28 1.25.192.262.481.461.876.586l-.543 1.594c-.613-.082-1.152-.274-1.61-.582-.457-.317-.789-.79-.992-1.418a4.956 4.956 0 0 1-1.914 1.5c-.77.332-1.61.5-2.531.5-1.422 0-2.543-.399-3.36-1.203-.816-.801-1.218-1.867-1.218-3.203 0-1.47.566-2.594 1.703-3.383 1.14-.79 2.79-1.188 4.941-1.188h2.094V21.59c0-1.024-.3-1.75-.898-2.18-.598-.433-1.426-.656-2.485-.656a8.82 8.82 0 0 0-1.64.18 13.22 13.22 0 0 0-2.047.558l-.594-1.726a14.126 14.126 0 0 1 2.45-.692c.761-.133 1.492-.199 2.187-.199 1.765 0 3.09.41 3.976 1.238.88.825 1.325 1.95 1.325 3.367Zm-5.856 1.692c.7 0 1.367-.172 2-.524a4.534 4.534 0 0 0 1.582-1.488v-3.68h-2.043c-1.562 0-2.668.274-3.312.82-.64.543-.961 1.27-.961 2.18 0 .883.226 1.555.676 2.012.457.453 1.14.68 2.058.68ZM50.445 31.45V29.7h2.211V18.921h-2.21v-1.75h3.937l.414 3.383c.543-1.176 1.207-2.086 1.984-2.73.79-.641 1.824-.962 3.102-.962.39 0 .746.032 1.05.094.317.055.633.129.962.215l-.665 2.035a9.726 9.726 0 0 0-.804-.18 4.527 4.527 0 0 0-.84-.07c-1.082 0-2.016.39-2.805 1.168-.777.777-1.402 1.953-1.867 3.523V29.7h2.887v1.75Zm9.27-9.458v-3.094l.226-1.726h1.954l-.32 4.82ZM71.281 29.875c1.09 0 1.946-.203 2.578-.617.641-.41.957-.961.957-1.645 0-.433-.078-.812-.234-1.129-.16-.316-.484-.601-.973-.847-.48-.254-1.226-.504-2.234-.762a16.177 16.177 0 0 1-2.555-.844c-.718-.324-1.277-.746-1.68-1.261-.394-.516-.59-1.184-.59-2.004 0-.801.223-1.489.673-2.07.457-.587 1.09-1.036 1.894-1.344.809-.317 1.75-.477 2.817-.477 1.14 0 2.132.148 2.98.45.852.304 1.57.675 2.164 1.12l-.996 1.547a8.012 8.012 0 0 0-1.785-.914c-.649-.238-1.43-.36-2.34-.36-1.113 0-1.902.177-2.367.524-.469.352-.7.797-.7 1.348 0 .414.114.758.344 1.035.227.281.618.531 1.16.75.551.223 1.305.465 2.27.727.922.238 1.727.53 2.414.878.688.344 1.223.797 1.61 1.36.382.555.578 1.281.578 2.168 0 1.008-.29 1.828-.864 2.453-.578.629-1.32 1.082-2.234 1.367-.91.285-1.871.43-2.887.43-1.277 0-2.37-.188-3.277-.559-.899-.375-1.656-.824-2.27-1.36l1.301-1.51c.55.46 1.188.831 1.914 1.12a6.325 6.325 0 0 0 2.332.426ZM84.879 11.207v7.918a5.335 5.335 0 0 1 2.058-1.68 5.743 5.743 0 0 1 2.473-.57c1.38 0 2.39.375 3.028 1.117.64.738.957 1.77.957 3.086V31.45h-2.27V21.137c0-.864-.2-1.492-.59-1.883-.398-.395-1.015-.594-1.86-.594-.534 0-1.046.125-1.534.367a5.62 5.62 0 0 0-1.301.918c-.39.356-.707.727-.961 1.11v10.394H82.62V11.457ZM105.953 17.172v12.476h4v1.801H99.31v-1.8h4.375V18.98h-4.235v-1.808Zm-1.808-6.68c.503 0 .906.153 1.207.465.296.3.449.676.449 1.117 0 .461-.153.852-.45 1.168-.3.309-.703.465-1.206.465-.473 0-.864-.156-1.172-.465a1.625 1.625 0 0 1-.461-1.168c0-.441.156-.816.46-1.117.31-.312.7-.465 1.173-.465ZM126.188 30.734c-.489.328-1.083.578-1.774.75-.684.18-1.36.274-2.023.274-1.532 0-2.707-.399-3.536-1.203-.82-.801-1.23-1.836-1.23-3.106v-8.515h-3.266v-1.762h3.266v-3.238l2.262-.274v3.512h4.894l-.273 1.762h-4.621v8.488c0 .797.207 1.402.625 1.824.418.414 1.113.617 2.082.617.527 0 1.015-.062 1.465-.187.449-.125.867-.29 1.254-.488ZM137.492 29.793c.711 0 1.375-.113 1.988-.344a7.8 7.8 0 0 0 1.704-.906l1.101 1.5c-.617.531-1.363.953-2.238 1.262a7.77 7.77 0 0 1-2.555.453c-1.41 0-2.613-.305-3.605-.918-.992-.61-1.75-1.465-2.274-2.57-.52-1.102-.777-2.399-.777-3.895 0-1.43.262-2.707.793-3.848.523-1.132 1.281-2.027 2.27-2.675.992-.653 2.199-.977 3.617-.977.906 0 1.757.137 2.554.414a7.176 7.176 0 0 1 2.192 1.238l-1.114 1.524c-.601-.426-1.203-.75-1.808-.961a5.53 5.53 0 0 0-1.848-.324c-1.222 0-2.226.464-3.015 1.394-.79.922-1.184 2.328-1.184 4.215 0 1.262.184 2.297.547 3.098.36.8.855 1.39 1.488 1.761.629.375 1.352.559 2.164.559ZM152.762 11.418v16.504c0 .71.215 1.21.648 1.504.434.293.996.437 1.692.437.425 0 .832-.039 1.218-.129a9.725 9.725 0 0 0 1.16-.37l.602 1.667c-.379.192-.855.36-1.43.5a7.65 7.65 0 0 1-1.93.227c-1.261 0-2.28-.348-3.062-1.047-.781-.7-1.172-1.668-1.172-2.906V13.23h-4.34v-1.812ZM165.648 17.172v10.11c0 .945.196 1.628.582 2.046.383.414.989.621 1.81.621.78 0 1.515-.222 2.21-.668.691-.453 1.234-.988 1.621-1.61v-10.5h2.258V31.45h-1.914l-.192-1.93a5.632 5.632 0 0 1-2.066 1.669c-.816.378-1.64.57-2.473.57-1.375 0-2.398-.363-3.078-1.094-.68-.738-1.015-1.777-1.015-3.11V17.173ZM181.805 19.027c.52-.68 1.117-1.207 1.797-1.582.675-.383 1.425-.57 2.246-.57 1.261 0 2.285.309 3.066.926.777.613 1.348 1.476 1.703 2.597.36 1.114.543 2.415.543 3.907 0 1.437-.219 2.718-.652 3.843-.426 1.13-1.059 2.016-1.89 2.657-.829.636-1.852.953-3.063.953-1.653 0-2.942-.594-3.871-1.785l-.164 1.476h-1.977V11.418l2.262-.273Zm3.203 10.887c1.183 0 2.094-.46 2.734-1.383.637-.922.957-2.336.957-4.238 0-1.246-.129-2.281-.379-3.11-.254-.831-.625-1.453-1.12-1.855-.5-.414-1.11-.621-1.837-.621-.797 0-1.496.238-2.093.715a6.841 6.841 0 0 0-1.465 1.57v7.086c.367.559.832 1 1.394 1.336.559.332 1.164.5 1.809.5ZM196.23 34.246l-1.82-.82 11.52-23.922 1.808.89ZM212.61 15.336l10.347 6.441v2.336l-10.219 6.442-1.23-1.68 9.512-5.918-9.512-5.895Zm0 0"/></svg>