<svg xmlns="http://www.w3.org/2000/svg" xmlns:xlink="http://www.w3.org/1999/xlink" width="450" zoomAndPan="magnify" viewBox="0 0 337.5 74.999997" height="100" preserveAspectRatio="xMidYMid meet" version="1.0"><defs><g/></defs><g fill="#000000" fill-opacity="1"><g transform="translate(0.0301781, 58.31801)"><g><path d="M 12.109375 -18.046875 L 12.109375 0 L 3.453125 0 L 3.453125 -41.640625 L 11.875 -41.640625 L 11.875 -25.71875 L 12.234375 -25.71875 C 12.953125 -27.5625 14.09375 -29.007812 15.65625 -30.0625 C 17.226562 -31.113281 19.203125 -31.640625 21.578125 -31.640625 C 24.828125 -31.640625 27.441406 -30.59375 29.421875 -28.5 C 31.398438 -26.414062 32.378906 -23.546875 32.359375 -19.890625 L 32.359375 0 L 23.703125 0 L 23.703125 -18.34375 C 23.710938 -20.257812 23.226562 -21.753906 22.25 -22.828125 C 21.269531 -23.898438 19.898438 -24.4375 18.140625 -24.4375 C 16.367188 -24.4375 14.925781 -23.875 13.8125 -22.75 C 12.695312 -21.632812 12.128906 -20.066406 12.109375 -18.046875 Z M 12.109375 -18.046875 "/></g></g></g><g fill="#000000" fill-opacity="1"><g transform="translate(35.769553, 58.31801)"><g><path d="M 12.359375 0.59375 C 9.378906 0.59375 6.90625 -0.1875 4.9375 -1.75 C 2.976562 -3.3125 2 -5.632812 2 -8.71875 C 2 -11.050781 2.546875 -12.878906 3.640625 -14.203125 C 4.734375 -15.535156 6.171875 -16.507812 7.953125 -17.125 C 9.734375 -17.738281 11.65625 -18.144531 13.71875 -18.34375 C 16.425781 -18.613281 18.363281 -18.894531 19.53125 -19.1875 C 20.695312 -19.488281 21.28125 -20.140625 21.28125 -21.140625 L 21.28125 -21.265625 C 21.28125 -22.554688 20.875 -23.550781 20.0625 -24.25 C 19.257812 -24.957031 18.125 -25.3125 16.65625 -25.3125 C 15.09375 -25.3125 13.847656 -24.972656 12.921875 -24.296875 C 12.003906 -23.617188 11.394531 -22.757812 11.09375 -21.71875 L 3.09375 -22.359375 C 3.6875 -25.203125 5.164062 -27.457031 7.53125 -29.125 C 9.894531 -30.800781 12.945312 -31.640625 16.6875 -31.640625 C 19.007812 -31.640625 21.175781 -31.269531 23.1875 -30.53125 C 25.207031 -29.800781 26.835938 -28.660156 28.078125 -27.109375 C 29.328125 -25.554688 29.953125 -23.539062 29.953125 -21.0625 L 29.953125 0 L 21.734375 0 L 21.734375 -4.328125 L 21.484375 -4.328125 C 20.722656 -2.878906 19.585938 -1.695312 18.078125 -0.78125 C 16.566406 0.132812 14.660156 0.59375 12.359375 0.59375 Z M 14.84375 -5.390625 C 16.738281 -5.390625 18.296875 -5.941406 19.515625 -7.046875 C 20.734375 -8.148438 21.34375 -9.519531 21.34375 -11.15625 L 21.34375 -14.46875 C 21.007812 -14.238281 20.484375 -14.035156 19.765625 -13.859375 C 19.054688 -13.679688 18.296875 -13.53125 17.484375 -13.40625 C 16.679688 -13.28125 15.960938 -13.171875 15.328125 -13.078125 C 13.804688 -12.859375 12.582031 -12.429688 11.65625 -11.796875 C 10.726562 -11.160156 10.265625 -10.226562 10.265625 -9 C 10.265625 -7.8125 10.691406 -6.910156 11.546875 -6.296875 C 12.410156 -5.691406 13.507812 -5.390625 14.84375 -5.390625 Z M 14.84375 -5.390625 "/></g></g></g><g fill="#000000" fill-opacity="1"><g transform="translate(68.988067, 58.31801)"><g><path d="M 3.453125 0 L 3.453125 -31.234375 L 11.859375 -31.234375 L 11.859375 -25.78125 L 12.171875 -25.78125 C 12.742188 -27.71875 13.695312 -29.179688 15.03125 -30.171875 C 16.363281 -31.171875 17.910156 -31.671875 19.671875 -31.671875 C 20.515625 -31.671875 21.296875 -31.566406 22.015625 -31.359375 C 22.734375 -31.160156 23.378906 -30.882812 23.953125 -30.53125 L 21.34375 -23.375 C 20.9375 -23.582031 20.492188 -23.753906 20.015625 -23.890625 C 19.535156 -24.035156 19 -24.109375 18.40625 -24.109375 C 16.65625 -24.109375 15.171875 -23.507812 13.953125 -22.3125 C 12.742188 -21.125 12.128906 -19.578125 12.109375 -17.671875 L 12.109375 0 Z M 3.453125 0 "/></g></g></g><g fill="#000000" fill-opacity="1"><g transform="translate(93.52585, 58.31801)"><g><path d="M 29.4375 -22.328125 L 21.515625 -21.828125 C 21.296875 -22.835938 20.742188 -23.703125 19.859375 -24.421875 C 18.984375 -25.140625 17.789062 -25.5 16.28125 -25.5 C 14.9375 -25.5 13.800781 -25.21875 12.875 -24.65625 C 11.945312 -24.09375 11.488281 -23.34375 11.5 -22.40625 C 11.488281 -21.65625 11.785156 -21.019531 12.390625 -20.5 C 12.992188 -19.988281 14.019531 -19.578125 15.46875 -19.265625 L 21.125 -18.140625 C 27.125 -16.898438 30.132812 -14.078125 30.15625 -9.671875 C 30.15625 -7.628906 29.550781 -5.832031 28.34375 -4.28125 C 27.144531 -2.738281 25.503906 -1.535156 23.421875 -0.671875 C 21.335938 0.179688 18.945312 0.609375 16.25 0.609375 C 12.113281 0.609375 8.816406 -0.253906 6.359375 -1.984375 C 3.910156 -3.710938 2.484375 -6.066406 2.078125 -9.046875 L 10.59375 -9.5 C 10.863281 -8.21875 11.488281 -7.25 12.46875 -6.59375 C 13.457031 -5.945312 14.722656 -5.625 16.265625 -5.625 C 17.785156 -5.625 19.007812 -5.921875 19.9375 -6.515625 C 20.863281 -7.117188 21.332031 -7.878906 21.34375 -8.796875 C 21.300781 -10.347656 19.96875 -11.382812 17.34375 -11.90625 L 11.9375 -12.984375 C 5.882812 -14.191406 2.875 -17.171875 2.90625 -21.921875 C 2.894531 -24.921875 4.097656 -27.289062 6.515625 -29.03125 C 8.929688 -30.769531 12.140625 -31.640625 16.140625 -31.640625 C 20.085938 -31.640625 23.195312 -30.800781 25.46875 -29.125 C 27.738281 -27.457031 29.0625 -25.191406 29.4375 -22.328125 Z M 29.4375 -22.328125 "/></g></g></g><g fill="#000000" fill-opacity="1"><g transform="translate(125.687218, 58.31801)"><g><path d="M 12.109375 -18.046875 L 12.109375 0 L 3.453125 0 L 3.453125 -41.640625 L 11.875 -41.640625 L 11.875 -25.71875 L 12.234375 -25.71875 C 12.953125 -27.5625 14.09375 -29.007812 15.65625 -30.0625 C 17.226562 -31.113281 19.203125 -31.640625 21.578125 -31.640625 C 24.828125 -31.640625 27.441406 -30.59375 29.421875 -28.5 C 31.398438 -26.414062 32.378906 -23.546875 32.359375 -19.890625 L 32.359375 0 L 23.703125 0 L 23.703125 -18.34375 C 23.710938 -20.257812 23.226562 -21.753906 22.25 -22.828125 C 21.269531 -23.898438 19.898438 -24.4375 18.140625 -24.4375 C 16.367188 -24.4375 14.925781 -23.875 13.8125 -22.75 C 12.695312 -21.632812 12.128906 -20.066406 12.109375 -18.046875 Z M 12.109375 -18.046875 "/></g></g></g><g fill="#000000" fill-opacity="1"><g transform="translate(161.426592, 58.31801)"><g><path d="M 3.453125 0 L 3.453125 -31.234375 L 12.109375 -31.234375 L 12.109375 0 Z M 7.796875 -35.25 C 6.523438 -35.25 5.425781 -35.675781 4.5 -36.53125 C 3.582031 -37.394531 3.125 -38.429688 3.125 -39.640625 C 3.125 -40.847656 3.582031 -41.878906 4.5 -42.734375 C 5.425781 -43.585938 6.523438 -44.015625 7.796875 -44.015625 C 9.085938 -44.015625 10.191406 -43.585938 11.109375 -42.734375 C 12.035156 -41.878906 12.5 -40.847656 12.5 -39.640625 C 12.5 -38.429688 12.035156 -37.394531 11.109375 -36.53125 C 10.191406 -35.675781 9.085938 -35.25 7.796875 -35.25 Z M 7.796875 -35.25 "/></g></g></g><g fill="#000000" fill-opacity="1"><g transform="translate(176.999044, 58.31801)"><g><path d="M 20.0625 -31.234375 L 20.0625 -24.71875 L 14.1875 -24.71875 L 14.1875 -9.59375 C 14.1875 -8.40625 14.457031 -7.597656 15 -7.171875 C 15.539062 -6.753906 16.25 -6.546875 17.125 -6.546875 C 17.53125 -6.546875 17.9375 -6.582031 18.34375 -6.65625 C 18.75 -6.726562 19.054688 -6.785156 19.265625 -6.828125 L 20.640625 -0.390625 C 20.203125 -0.253906 19.585938 -0.0976562 18.796875 0.078125 C 18.015625 0.265625 17.0625 0.378906 15.9375 0.421875 C 12.789062 0.554688 10.265625 -0.117188 8.359375 -1.609375 C 6.460938 -3.109375 5.519531 -5.390625 5.53125 -8.453125 L 5.53125 -24.71875 L 1.265625 -24.71875 L 1.265625 -31.234375 L 5.53125 -31.234375 L 5.53125 -38.703125 L 14.1875 -38.703125 L 14.1875 -31.234375 Z M 20.0625 -31.234375 "/></g></g></g><g fill="#000000" fill-opacity="1"><g transform="translate(199.239592, 58.31801)"><g><path d="M 17.5625 0.609375 C 14.363281 0.609375 11.613281 -0.0664062 9.3125 -1.421875 C 7.019531 -2.785156 5.257812 -4.679688 4.03125 -7.109375 C 2.8125 -9.535156 2.203125 -12.328125 2.203125 -15.484375 C 2.203125 -18.691406 2.820312 -21.503906 4.0625 -23.921875 C 5.300781 -26.335938 7.0625 -28.226562 9.34375 -29.59375 C 11.632812 -30.957031 14.363281 -31.640625 17.53125 -31.640625 C 20.25 -31.640625 22.632812 -31.144531 24.6875 -30.15625 C 26.738281 -29.164062 28.359375 -27.773438 29.546875 -25.984375 C 30.734375 -24.191406 31.390625 -22.085938 31.515625 -19.671875 L 23.34375 -19.671875 C 23.113281 -21.234375 22.503906 -22.492188 21.515625 -23.453125 C 20.535156 -24.410156 19.253906 -24.890625 17.671875 -24.890625 C 15.660156 -24.890625 14.046875 -24.082031 12.828125 -22.46875 C 11.609375 -20.851562 11 -18.566406 11 -15.609375 C 11 -12.628906 11.601562 -10.320312 12.8125 -8.6875 C 14.03125 -7.050781 15.648438 -6.234375 17.671875 -6.234375 C 19.160156 -6.234375 20.410156 -6.679688 21.421875 -7.578125 C 22.441406 -8.484375 23.082031 -9.773438 23.34375 -11.453125 L 31.515625 -11.453125 C 31.378906 -9.066406 30.726562 -6.960938 29.5625 -5.140625 C 28.40625 -3.328125 26.8125 -1.914062 24.78125 -0.90625 C 22.75 0.101562 20.34375 0.609375 17.5625 0.609375 Z M 17.5625 0.609375 "/></g></g></g><g fill="#000000" fill-opacity="1"><g transform="translate(232.8647, 58.31801)"><g><path d="M 12.109375 -41.640625 L 12.109375 0 L 3.453125 0 L 3.453125 -41.640625 Z M 12.109375 -41.640625 "/></g></g></g><g fill="#000000" fill-opacity="1"><g transform="translate(248.437137, 58.31801)"><g><path d="M 23.484375 -13.296875 L 23.484375 -31.234375 L 32.140625 -31.234375 L 32.140625 0 L 23.828125 0 L 23.828125 -5.671875 L 23.5 -5.671875 C 22.789062 -3.835938 21.617188 -2.363281 19.984375 -1.25 C 18.359375 -0.144531 16.375 0.40625 14.03125 0.40625 C 10.882812 0.40625 8.335938 -0.640625 6.390625 -2.734375 C 4.441406 -4.828125 3.460938 -7.695312 3.453125 -11.34375 L 3.453125 -31.234375 L 12.109375 -31.234375 L 12.109375 -12.890625 C 12.128906 -11.046875 12.625 -9.585938 13.59375 -8.515625 C 14.570312 -7.441406 15.882812 -6.90625 17.53125 -6.90625 C 19.082031 -6.90625 20.460938 -7.445312 21.671875 -8.53125 C 22.890625 -9.625 23.492188 -11.210938 23.484375 -13.296875 Z M 23.484375 -13.296875 "/></g></g></g><g fill="#000000" fill-opacity="1"><g transform="translate(284.034227, 58.31801)"><g><path d="M 3.625 0 L 3.625 -41.640625 L 12.28125 -41.640625 L 12.28125 -25.984375 L 12.546875 -25.984375 C 12.941406 -26.835938 13.492188 -27.695312 14.203125 -28.5625 C 14.921875 -29.425781 15.867188 -30.15625 17.046875 -30.75 C 18.234375 -31.34375 19.691406 -31.640625 21.421875 -31.640625 C 23.710938 -31.640625 25.8125 -31.046875 27.71875 -29.859375 C 29.632812 -28.671875 31.171875 -26.882812 32.328125 -24.5 C 33.492188 -22.125 34.078125 -19.148438 34.078125 -15.578125 C 34.078125 -12.085938 33.515625 -9.144531 32.390625 -6.75 C 31.265625 -4.363281 29.742188 -2.554688 27.828125 -1.328125 C 25.921875 -0.0976562 23.78125 0.515625 21.40625 0.515625 C 19.726562 0.515625 18.300781 0.238281 17.125 -0.3125 C 15.957031 -0.875 15.003906 -1.578125 14.265625 -2.421875 C 13.523438 -3.273438 12.953125 -4.132812 12.546875 -5 L 12.15625 -5 L 12.15625 0 Z M 12.09375 -15.609375 C 12.09375 -12.835938 12.664062 -10.609375 13.8125 -8.921875 C 14.957031 -7.234375 16.570312 -6.390625 18.65625 -6.390625 C 20.789062 -6.390625 22.421875 -7.242188 23.546875 -8.953125 C 24.671875 -10.671875 25.234375 -12.890625 25.234375 -15.609375 C 25.234375 -18.316406 24.671875 -20.515625 23.546875 -22.203125 C 22.429688 -23.890625 20.800781 -24.734375 18.65625 -24.734375 C 16.5625 -24.734375 14.941406 -23.910156 13.796875 -22.265625 C 12.660156 -20.617188 12.09375 -18.398438 12.09375 -15.609375 Z M 12.09375 -15.609375 "/></g></g></g><g fill="#000000" fill-opacity="1"><g transform="translate(320.403805, 58.31801)"><g><path d="M 8.515625 0.53125 C 7.171875 0.53125 6.019531 0.0546875 5.0625 -0.890625 C 4.101562 -1.835938 3.628906 -2.988281 3.640625 -4.34375 C 3.628906 -5.675781 4.101562 -6.816406 5.0625 -7.765625 C 6.019531 -8.710938 7.171875 -9.1875 8.515625 -9.1875 C 9.816406 -9.1875 10.953125 -8.710938 11.921875 -7.765625 C 12.890625 -6.816406 13.378906 -5.675781 13.390625 -4.34375 C 13.378906 -2.988281 12.890625 -1.835938 11.921875 -0.890625 C 10.953125 0.0546875 9.816406 0.53125 8.515625 0.53125 Z M 8.515625 0.53125 "/></g></g></g></svg>